<svg class="icon" viewBox="0 0 1024 1024" xmlns="http://www.w3.org/2000/svg" width="128" height="128"><defs><style>@font-face{font-family:feedback-iconfont;src:url(//at.alicdn.com/t/font_1031158_u69w8yhxdu.woff2?t=1630033759944) format(&quot;woff2&quot;),url(//at.alicdn.com/t/font_1031158_u69w8yhxdu.woff?t=1630033759944) format(&quot;woff&quot;),url(//at.alicdn.com/t/font_1031158_u69w8yhxdu.ttf?t=1630033759944) format(&quot;truetype&quot;)}</style></defs><path d="M533.333 128.81l43.008.15c23.574.085 42.667 19.413 42.667 42.816v41.557H405.653c.299-14.357.107-42.346.107-42.346a42.197 42.197 0 0 1 42.56-42.496l42.347.149V64a21.333 21.333 0 0 1 42.666 0v64.81zm193.344 532.523c85.483 174.272 190.699 277.334 190.699 277.334h-255.19c-65.45-148.182-236.031-149.056-299.029 0H105.088s105.173-99.926 191.147-277.334h-61.568a21.333 21.333 0 0 1 0-42.666h554.666a21.333 21.333 0 0 1 0 42.666H726.7zM622.805 298.667C632.043 401.13 657.152 494.357 689.11 576H333.333a1074.71 1074.71 0 0 0 66.987-277.333h-37.653a21.333 21.333 0 0 1 0-42.667h298.666a21.333 21.333 0 0 1 0 42.667h-38.506z"/></svg>