<svg class="icon" viewBox="0 0 1024 1024" xmlns="http://www.w3.org/2000/svg" width="128" height="128"><defs><style>@font-face{font-family:feedback-iconfont;src:url(//at.alicdn.com/t/font_1031158_u69w8yhxdu.woff2?t=1630033759944) format(&quot;woff2&quot;),url(//at.alicdn.com/t/font_1031158_u69w8yhxdu.woff?t=1630033759944) format(&quot;woff&quot;),url(//at.alicdn.com/t/font_1031158_u69w8yhxdu.ttf?t=1630033759944) format(&quot;truetype&quot;)}</style></defs><path d="M568.074 954.878l-5.845-23.73s-66.445-217.909-150.15-389.469c59.057-165.185 139.96-384.977 163.93-417.841C615.053 70.292 725.533-16.31 822.863 277.232c121.78 367.142 187.22 677.646 187.22 677.646H568.074zm179.254-722.689c-39.68-97.332-74.965-124.877-112.8-102.695-37.84 22.227-95.445 248.594-95.445 248.594s34.265-28.56 64.52-30.88c30.25-2.32 71.905 53.932 71.905 53.932s23.87-69.542 52.145-66.885c28.32 2.61 75.64 37.697 75.64 37.697s-16.295-42.433-55.965-139.763zM510.814 954.878l-486.659-2.035S128.252 690.234 159.71 601.169c31.462-89.067 92.015-227.959 174.37-99.555 82.302 128.41 157.402 374.639 157.402 374.639l19.332 78.625zM313.637 582.083c-21.457-51.955-40.405-66.6-60.607-54.615-20.2 11.985-50.452 133.29-50.452 133.29s18.27-15.365 34.455-16.725c16.147-1.3 38.617 28.66 38.617 28.66s12.565-37.26 27.692-35.905c15.175 1.31 40.592 19.91 40.592 19.91s-8.84-22.62-30.297-74.615z"/></svg>