<svg class="icon" viewBox="0 0 1024 1024" xmlns="http://www.w3.org/2000/svg" width="128" height="128"><defs><style>@font-face{font-family:feedback-iconfont;src:url(//at.alicdn.com/t/font_1031158_u69w8yhxdu.woff2?t=1630033759944) format(&quot;woff2&quot;),url(//at.alicdn.com/t/font_1031158_u69w8yhxdu.woff?t=1630033759944) format(&quot;woff&quot;),url(//at.alicdn.com/t/font_1031158_u69w8yhxdu.ttf?t=1630033759944) format(&quot;truetype&quot;)}</style></defs><path d="M640 298.667c11.093 114.602 47.019 207.36 85.333 298.666H298.667C336.128 506.923 371.2 414.464 384 298.667h-42.88A42.325 42.325 0 0 1 298.795 256c.042-23.552 19.541-42.667 42.538-42.667H682.88c23.467 0 42.453 18.944 42.453 42.667 0 23.552-19.456 42.667-42.453 42.667H640zM256 725.333h-42.795c-23.594 0-42.666-18.944-42.538-42.666.085-23.552 19.157-42.667 42.88-42.667h597.077c23.595 0 42.71 18.944 42.71 42.667 0 23.552-18.987 42.666-42.71 42.666H768C857.77 913.024 981.333 1024 981.333 1024H670.592c-68.779-159.573-247.979-160.512-314.155 0H42.667S165.675 916.395 256 725.333zM554.667 86.187l34.133.128c28.288.085 51.2 19.413 51.2 42.794v41.558H384c.341-14.379.128-42.368.128-42.368-.085-23.552 22.613-42.582 51.03-42.454l34.175.086V42.667a42.667 42.667 0 0 1 85.334 0v43.52z"/></svg>